<?xml version="1.0" encoding="utf-8"?>
<!-- Generator: Adobe Illustrator 18.0.0, SVG Export Plug-In . SVG Version: 6.00 Build 0)  -->
<!DOCTYPE svg PUBLIC "-//W3C//DTD SVG 1.1//EN" "http://www.w3.org/Graphics/SVG/1.1/DTD/svg11.dtd">
<svg version="1.1" id="Слой_1" xmlns="http://www.w3.org/2000/svg" xmlns:xlink="http://www.w3.org/1999/xlink" x="0px" y="0px"
	 viewBox="0 0 139.2432404 97.1891861" style="enable-background:new 0 0 139.2432404 97.1891861;" xml:space="preserve">
<style type="text/css">
	.st0{fill:#FFFFFF;}
</style>
<g id="wr">
	<g>
		<path class="st0" d="M115.7973709,3.8806477"/>
		<path class="st0" d="M88.1001053,3.8607054c0,0-12.6707535,42.8298912-12.8103561,43.0152283
			c-0.1386414-0.1881447-6.4661179-20.4630833-8.7251587-27.8605022c-1.5422363-5.0501709-3.075592-10.1030521-4.612915-15.154727
			c-4.5584412,0-9.1168861,0-13.6753273,0c-1.4645805,4.444582-14.2372017,42.8293343-14.4073296,43.0164146
			C33.7660789,46.724575,23.1925583,7.7976542,22.1279182,3.8607054c-5.8859024,0-11.7718058,0.0013332-17.6577034-0.0035129
			c0,0,19.6125259,66.7539749,19.7615967,67.1779327h17.2820091c0.3062897-0.7614212,5.9637985-17.6348228,8.4903297-25.3087578
			c1.415863-4.3004494,4.5135612-13.2255707,4.6399269-13.3898544c0.1490059,0.1804352,11.248539,34.9783974,12.4170647,38.6986122
			h17.4322891c0.5406036-1.557785,12.2121277-37.8171196,14.1382294-43.8762512
			c0.9934616-3.1252747,3.2156525-10.258997,3.2775879-10.2594147c2.5505295-0.0172863,5.7382584,0.0374031,8.2558517,0.369791
			c5.4642563,0.7214031,8.6669617,5.9169254,6.8390045,10.9473057c-1.1088638,3.0515041-2.7336197,4.7574863-6.2372131,5.3167477
			c-3.4382019,0.5488205-9.59552,0.3004608-11.816246,0.2855606c-0.0381927,0.1215324-2.8873444,8.5247116-4.1004333,12.4727478
			c0.147583,0.3043747,5.7946625,9.3623352,8.4666977,13.4782066c2.2630615,3.4858894,7.0432053,10.9980202,7.1746674,11.2653084
			h21.3395233c-0.0669403-0.2182999-18.3776474-24.1778374-18.1187363-24.2133522
			c4.9800339-0.6830444,8.7997665-2.5867882,11.7475052-4.4655113c4.3281708-2.7585335,5.3901672-3.9222755,7.9690857-9.7399979
			c1.8078003-6.1981773,1.385376-8.2632637,0.4919128-13.8721123c-0.8854523-5.5586834-7.8952942-14.8869591-17.5246048-14.8869591"
			/>
	</g>
	<g>
		<path class="st0" d="M82.7308502,73.7228165l-6.1756973,11.3719711h-2.0086975L68.354187,73.7228165h1.7763824
			l5.2958603,9.8446198h0.2487488l5.2960052-9.8446198H82.7308502z"/>
		<path class="st0" d="M85.9348602,85.0947876h-1.6933746V73.7228165h1.6933746V85.0947876z"/>
		<path class="st0" d="M88.9065475,73.7228165h9.5292969c1.405426,0,2.362648,0.2605591,2.8719635,0.7814026
			c0.7525711,0.7759247,1.1287231,2.4107819,1.1287231,4.9045868c0,2.4828415-0.376152,4.1122284-1.1287231,4.8881531
			c-0.5093155,0.5320816-1.4665375,0.7978287-2.8719635,0.7978287h-9.5292969V73.7228165z M90.5999222,83.5674362h7.8192062
			c0.918602,0,1.5357056-0.2798691,1.8510361-0.8399124c0.3153229-0.5600357,0.4732819-1.666275,0.4732819-3.318718
			c0-1.6412048-0.160553-2.7445679-0.4816437-3.3100815s-0.935318-0.8485565-1.8426743-0.8485565h-7.8192062V83.5674362z"/>
		<path class="st0" d="M105.7898407,73.7228165h10.8739014v1.5273514h-9.1805267v3.3201599h8.8652039v1.5273514h-8.8652039
			v3.4697571h9.1805267v1.5273514h-10.8739014V73.7228165z"/>
		<path class="st0" d="M126.7576904,85.2608109c-2.3574677,0-4.0067368-0.1521835-4.9472427-0.4565582
			c-0.9407959-0.3043747-1.5385895-0.882576-1.7931061-1.7348785c-0.1769714-0.5865555-0.2654572-1.7982941-0.2654572-3.6357803
			c0-1.8700638,0.0830078-3.0820847,0.2490311-3.635498c0.254509-0.8632584,0.8574982-1.4498138,1.8095322-1.7599564
			c0.9517441-0.3095627,2.6007309-0.4646301,4.9472427-0.4646301c2.3574677,0,4.0035706,0.1521912,4.9388885,0.4562759
			c0.9350281,0.3046646,1.5357056,0.8883362,1.8011627,1.7515945c0.1769867,0.5868454,0.2657623,1.8040543,0.2657623,3.6522141
			c0,1.8593903-0.0830231,3.0659409-0.2490387,3.6193466c-0.2548065,0.8632584-0.8523102,1.4469376-1.7931061,1.7513123
			S129.125824,85.2608109,126.7576904,85.2608109z M126.7576904,83.7334595c2.6116791,0,4.1502838-0.1939774,4.6152039-0.5819397
			c0.46492-0.3882523,0.6972351-1.630249,0.6972351-3.7259979c0-2.106987-0.2297211-3.3544693-0.6888885-3.7424316
			c-0.4594421-0.3879623-2.0006256-0.5822296-4.6235504-0.5822296c-2.6232147,0-4.1643982,0.1942673-4.623558,0.5822296
			c-0.4594421,0.3879623-0.6888809,1.6354446-0.6888809,3.7424316c0,2.0847931,0.2323151,3.3239059,0.6972427,3.7176361
			C122.6074142,83.5368881,124.1454239,83.7334595,126.7576904,83.7334595z"/>
	</g>
	<g>
		<path class="st0" d="M73.4563522,92.6159592V87.789772h3.9315109c0.4274521,0,0.7620926,0.1274033,1.0039215,0.3822021
			c0.2418213,0.2547989,0.3628845,0.6416092,0.3628845,1.1607132c0,0.5191116-0.1233673,0.9047699-0.3698044,1.1572571
			c-0.246727,0.2524948-0.5882874,0.378746-1.0252457,0.378746h-3.1847v1.7472687H73.4563522z M74.1749191,90.2204514h3.1847
			c0.2066574,0,0.3709564-0.0709076,0.4931641-0.2130051c0.1222153-0.1420975,0.1833191-0.3669205,0.1833191-0.6747589
			c0-0.3078308-0.0599518-0.5338058-0.1795731-0.678215c-0.1199036-0.1444016-0.287941-0.2167511-0.50383-0.2167511h-3.1777802
			V90.2204514z"/>
		<path class="st0" d="M79.8819504,87.789772h4.3261032c0.4087143,0,0.723465,0.1397934,0.944252,0.4196701
			s0.3311768,0.652565,0.3311768,1.1180573c0,0.3997803-0.0634079,0.6983948-0.1902313,0.8958359
			c-0.0893555,0.1409454-0.232605,0.2539291-0.4297562,0.3386688c0.1735153,0.0706177,0.3098526,0.1622772,0.4084244,0.2752686
			c0.1409454,0.1599655,0.2115631,0.3576965,0.2115631,0.5928955v1.185791h-0.7188568v-1.188385
			c0-0.1605453-0.076088-0.2937088-0.228569-0.3997803c-0.1524734-0.1060715-0.3363647-0.1591034-0.5519638-0.1591034h-3.3832855
			v1.7472687h-0.7188568V87.789772z M80.6008072,90.2204514h3.3129578c0.2625809,0,0.4545441-0.0449677,0.5767517-0.1343155
			c0.1827393-0.1369171,0.2741089-0.389122,0.2741089-0.7569046c0-0.3677902-0.0890579-0.6176834-0.267189-0.7499847
			c-0.1265335-0.0942535-0.3210907-0.1415253-0.5836716-0.1415253h-3.3129578V90.2204514z"/>
		<path class="st0" d="M89.7600098,92.6862869c-1.0004578,0-1.7005844-0.0645599-2.0994949-0.1936874
			c-0.3994904-0.1291351-0.6531372-0.3744202-0.7609406-0.7361526c-0.0752258-0.2490311-0.1129837-0.7632446-0.1129837-1.5432053
			c0-0.7935028,0.0354538-1.3080063,0.1057816-1.5429153c0.1080856-0.3663406,0.3640366-0.6153793,0.7681427-0.7468109
			c0.4038162-0.1314316,1.1036453-0.1971512,2.0994949-0.1971512c1.0004578,0,1.6991348,0.0645599,2.0960312,0.1936951
			c0.396904,0.1291275,0.6517029,0.3770065,0.7643967,0.7433548c0.0752335,0.2490311,0.1129913,0.7655487,0.1129913,1.5498276
			c0,0.7891846-0.0354538,1.3013763-0.1057816,1.5360031c-0.1080933,0.3663406-0.3617325,0.6142197-0.7609406,0.7433548
			C91.4675064,92.621727,90.7650757,92.6862869,89.7600098,92.6862869z M89.7600098,92.0383377
			c1.1085434,0,1.7613983-0.0824356,1.9588318-0.2472992c0.1971512-0.1645813,0.2957306-0.6917648,0.2957306-1.5812531
			c0-0.894104-0.0974197-1.423584-0.2922668-1.5881653c-0.195137-0.1645813-0.8491364-0.2473068-1.9622955-0.2473068
			s-1.7674484,0.0827255-1.9622955,0.2473068s-0.2922668,0.6940613-0.2922668,1.5881653
			c0,0.8848801,0.0985718,1.410614,0.295723,1.5777893C87.9986115,91.9547501,88.6514587,92.0383377,89.7600098,92.0383377z"/>
		<path class="st0" d="M93.7408066,87.789772h4.0442047c0.5963593,0,1.0027618,0.1103973,1.2189407,0.3314743
			c0.3193665,0.3294449,0.4790421,1.0232239,0.4790421,2.0816193c0,1.0537872-0.1596756,1.7452545-0.4790421,2.0744171
			c-0.2161789,0.225975-0.6225815,0.3386765-1.2189407,0.3386765h-4.0442047V87.789772z M94.4593735,91.96772h3.318718
			c0.3896942,0,0.6516953-0.1187515,0.7854385-0.3565445c0.1340332-0.2375031,0.2008972-0.7070389,0.2008972-1.4083099
			c0-0.6966629-0.068306-1.1650391-0.2043533-1.4048462c-0.1363373-0.2401047-0.3968964-0.3602982-0.7819824-0.3602982h-3.318718
			V91.96772z"/>
		<path class="st0" d="M101.6389847,91.2125473c0,0.3764343,0.1046295,0.6081772,0.3135986,0.6952209
			c0.2089691,0.0870514,0.7643967,0.1305695,1.6662827,0.1305695c0.9111023,0,1.4702759-0.0435181,1.6769409-0.1305695
			c0.206665-0.0870438,0.3098526-0.3187866,0.3098526-0.6952209V87.789772h0.7188492v3.4219131
			c0,0.6635132-0.1317215,1.0702133-0.3945847,1.2206726c-0.2914047,0.1694794-1.0615692,0.2539291-2.311058,0.2539291
			c-1.2448883,0-2.0058212-0.0798416-2.282814-0.2398071c-0.2772827-0.1596832-0.4156342-0.5712814-0.4156342-1.2347946V87.789772
			h0.7185669V91.2125473z"/>
		<path class="st0" d="M108.1421127,90.2097855c0,0.8799744,0.0939636,1.4048538,0.2818909,1.5743332
			c0.1879349,0.1694794,0.7632446,0.2542191,1.7262344,0.2542191c0.8969803,0,1.4443436-0.0495758,1.641777-0.1481476
			c0.230011-0.1173172,0.3450165-0.4343719,0.3450165-0.9511719h0.7188568c0,0.765831-0.1585312,1.2483368-0.4755859,1.448082
			c-0.3170547,0.1994629-1.0604095,0.2991867-2.2300644,0.2991867c-1.188385,0-1.9401016-0.1406555-2.2545624-0.4225464
			c-0.3147507-0.2818985-0.4721298-0.9652939-0.4721298-2.050499c0-1.0895233,0.1562271-1.7763824,0.4686661-2.0608673
			c0.3121643-0.2839127,1.0647354-0.4260101,2.2580261-0.4260101c1.174263,0,1.9187698,0.0974197,2.2335205,0.2925568
			c0.3144684,0.195137,0.4721298,0.6776352,0.4721298,1.4475098h-0.7188568c0-0.5165176-0.1054916-0.8278046-0.3170547-0.9335861
			c-0.2112732-0.1054993-0.7678528-0.1585312-1.6697388-0.1585312c-0.967598,0-1.5443573,0.0835876-1.7296906,0.2507629
			C108.2349243,88.7922516,108.1421127,89.3205872,108.1421127,90.2097855z"/>
		<path class="st0" d="M114.067627,87.789772h5.0377426v0.6479492h-2.155983v4.1782379h-0.7185669v-4.1782379h-2.1631927V87.789772z
			"/>
		<path class="st0" d="M120.8595657,92.6159592h-0.7188568V87.789772h0.7188568V92.6159592z"/>
		<path class="st0" d="M125.0233841,92.6862869c-1.0004578,0-1.7005768-0.0645599-2.0994949-0.1936874
			c-0.3994904-0.1291351-0.6531372-0.3744202-0.7609329-0.7361526c-0.0752258-0.2490311-0.1129913-0.7632446-0.1129913-1.5432053
			c0-0.7935028,0.0354538-1.3080063,0.1057816-1.5429153c0.1080933-0.3663406,0.3640442-0.6153793,0.7681427-0.7468109
			c0.4038162-0.1314316,1.103653-0.1971512,2.0994949-0.1971512c1.0004654,0,1.6991425,0.0645599,2.0960388,0.1936951
			c0.3968964,0.1291275,0.6516953,0.3770065,0.7643967,0.7433548c0.0752258,0.2490311,0.1129837,0.7655487,0.1129837,1.5498276
			c0,0.7891846-0.0354462,1.3013763-0.1057816,1.5360031c-0.1080856,0.3663406-0.3617325,0.6142197-0.7609329,0.7433548
			C126.7308807,92.621727,126.0284576,92.6862869,125.0233841,92.6862869z M125.0233841,92.0383377
			c1.108551,0,1.7613983-0.0824356,1.9588394-0.2472992c0.1971512-0.1645813,0.2957306-0.6917648,0.2957306-1.5812531
			c0-0.894104-0.0974274-1.423584-0.2922745-1.5881653c-0.1951294-0.1645813-0.8491364-0.2473068-1.9622955-0.2473068
			c-1.1131516,0-1.7674484,0.0827255-1.9622955,0.2473068c-0.1948395,0.1645813-0.2922668,0.6940613-0.2922668,1.5881653
			c0,0.8848801,0.0985794,1.410614,0.2957306,1.5777893C123.2619934,91.9547501,123.9148407,92.0383377,125.0233841,92.0383377z"/>
		<path class="st0" d="M129.0324249,87.789772h1.0497589l4.1358643,4.2272415V87.789772h0.7185669v4.8261871h-1.0849152
			l-4.100708-4.19207v4.19207h-0.7185669V87.789772z"/>
	</g>
</g>
</svg>
