<?xml version="1.0" encoding="utf-8"?>
<!-- Generator: Adobe Illustrator 21.0.0, SVG Export Plug-In . SVG Version: 6.00 Build 0)  -->
<svg version="1.1" id="Слой_1" xmlns="http://www.w3.org/2000/svg" xmlns:xlink="http://www.w3.org/1999/xlink" x="0px" y="0px"
	 viewBox="0 0 612 328" style="enable-background:new 0 0 612 328;" xml:space="preserve">
<g>
	<path d="M453.5958862,14.3077393"/>
	<path d="M359.7550049,14.2401733c0,0-42.9296875,145.1116333-43.4026794,145.739563
		c-0.4697266-0.6374512-21.9078064-69.3308105-29.5616455-94.3939514
		c-5.2252197-17.1104431-10.4203796-34.230072-15.6289673-51.3456116c-15.4444275,0-30.888855,0-46.3332825,0
		c-4.9621277,15.0586548-48.2369537,145.1097412-48.8133545,145.7435913
		c-0.3487701-0.5168457-36.1728363-132.4048462-39.7799377-145.7435913c-19.9419785,0-39.8839645,0.0045166-59.8259277-0.0119019
		c0,0,66.4490509,226.1686401,66.9541168,227.6050415h58.5530396c1.037735-2.5797729,20.2059021-59.7484131,28.7660217-85.7484131
		c4.7970734-14.5703125,15.2923584-44.8094482,15.7205048-45.3660583
		c0.504837,0.6113281,38.111084,118.5100403,42.0701599,131.1144714h59.0621948
		c1.8316345-5.2779236,41.375824-128.1278992,47.9016418-148.6567993
		c3.3659363-10.5887146,10.894928-34.7584267,11.1047668-34.7598457c8.6414185-0.0585632,19.4417419,0.1267281,27.9715881,1.2528877
		c18.5133972,2.4441833,29.3644714,20.0470886,23.1711731,37.0904846
		c-3.7569275,10.3387756-9.2617493,16.1188049-21.1322632,18.0136337
		c-11.6489258,1.8594513-32.510498,1.0179901-40.0345154,0.9674988C396.3882446,116.1529388,386.7350464,144.6236877,382.625,158
		c0.5,1.03125,19.632843,31.720459,28.6859436,45.6654053c7.66745,11.8105164,23.8630371,37.2622986,24.3084412,38.1679077
		h72.3002625c-0.2267761-0.739624-62.2651672-81.916748-61.3879395-82.0370789
		c16.8728027-2.314209,29.8144226-8.764267,39.8016357-15.1295624c14.6642456-9.3461609,18.2623901-13.289032,26.9999695-33.0000076
		c6.125-21,4.6937866-27.9967041,1.666687-47c-3-18.8333321-26.75-50.4383926-59.375-50.4383926"/>
</g>
<g>
	<path d="M341.5634766,250.9394531L320.6396484,289.46875h-6.8056641l-20.9799805-38.5292969h6.0185547l17.9428711,33.3544922
		h0.8427734l17.9433594-33.3544922H341.5634766z"/>
	<path d="M352.4189453,289.46875h-5.7373047v-38.5292969h5.7373047V289.46875z"/>
	<path d="M362.4873047,250.9394531h32.2861328c4.7617188,0,8.0048828,0.8828125,9.7304688,2.6474609
		c2.5498047,2.6289063,3.8242188,8.1679688,3.8242188,16.6171875c0,8.4121094-1.2744141,13.9326172-3.8242188,16.5615234
		c-1.7255859,1.8027344-4.96875,2.703125-9.7304688,2.703125h-32.2861328V250.9394531z M368.2246094,284.2939453h26.4921875
		c3.1123047,0,5.203125-0.9482422,6.2714844-2.8457031s1.6035156-5.6455078,1.6035156-11.2441406
		c0-5.5605469-0.5439453-9.2988281-1.6318359-11.2148438s-3.1689453-2.875-6.2431641-2.875h-26.4921875V284.2939453z"/>
	<path d="M419.6894531,250.9394531H456.53125v5.1748047h-31.1044922v11.2490234h30.0361328v5.1748047h-30.0361328v11.7558594
		H456.53125v5.1748047h-36.8417969V250.9394531z"/>
	<path d="M490.7304688,290.03125c-7.9873047,0-13.5751953-0.515625-16.7617188-1.546875
		c-3.1875-1.03125-5.2128906-2.9902344-6.0751953-5.8779297c-0.5996094-1.9873047-0.8994141-6.0927734-0.8994141-12.3183594
		c0-6.3359375,0.28125-10.4423828,0.84375-12.3173828c0.8623047-2.9248047,2.9052734-4.9121094,6.1308594-5.9628906
		c3.2246094-1.0488281,8.8115234-1.5742188,16.7617188-1.5742188c7.9873047,0,13.5644531,0.515625,16.7333984,1.5458984
		c3.1679688,1.0322266,5.203125,3.0097656,6.1025391,5.9345703c0.5996094,1.9882813,0.9003906,6.1123047,0.9003906,12.3740234
		c0,6.2998047-0.28125,10.3876953-0.84375,12.2626953c-0.8632813,2.9248047-2.8876953,4.9023438-6.0751953,5.9335938
		S498.7539063,290.03125,490.7304688,290.03125z M490.7304688,284.8564453c8.8486328,0,14.0615234-0.6572266,15.6367188-1.9716797
		c1.5751953-1.3154297,2.3623047-5.5234375,2.3623047-12.6240234c0-7.1386719-0.7783203-11.3652344-2.3339844-12.6796875
		c-1.5566406-1.3144531-6.7783203-1.9726563-15.6650391-1.9726563c-8.8876953,0-14.109375,0.6582031-15.6650391,1.9726563
		c-1.5566406,1.3144531-2.3339844,5.5410156-2.3339844,12.6796875c0,7.0634766,0.7871094,11.2617188,2.3623047,12.5957031
		S481.8798828,284.8564453,490.7304688,284.8564453z"/>
</g>
<g>
	<path d="M310.140625,314.9511719v-16.3515625h13.3203125c1.4482422,0,2.5820313,0.4316406,3.4013672,1.2949219
		s1.2294922,2.1738281,1.2294922,3.9326172s-0.4179688,3.0654297-1.2529297,3.9208984
		c-0.8359375,0.8554688-1.9931641,1.2832031-3.4736328,1.2832031h-10.7900391v5.9199219H310.140625z M312.5751953,306.8349609
		h10.7900391c0.7001953,0,1.2568359-0.2402344,1.6708984-0.7216797s0.6210938-1.2431641,0.6210938-2.2861328
		s-0.203125-1.8085938-0.6083984-2.2978516c-0.40625-0.4892578-0.9755859-0.734375-1.7070313-0.734375h-10.7666016V306.8349609z"/>
	<path d="M331.9111328,298.5996094h14.6572266c1.3847656,0,2.4511719,0.4736328,3.1992188,1.421875
		s1.1220703,2.2109375,1.1220703,3.7880859c0,1.3544922-0.2148438,2.3662109-0.6445313,3.0351563
		c-0.3027344,0.4775391-0.7880859,0.8603516-1.4560547,1.1474609c0.5878906,0.2392578,1.0498047,0.5498047,1.3837891,0.9326172
		c0.4775391,0.5419922,0.7167969,1.2119141,0.7167969,2.0087891v4.0175781h-2.4355469v-4.0263672
		c0-0.5439453-0.2578125-0.9951172-0.7744141-1.3544922s-1.1396484-0.5390625-1.8701172-0.5390625h-11.4628906v5.9199219h-2.4355469
		V298.5996094z M334.3466797,306.8349609h11.2246094c0.8896484,0,1.5400391-0.1523438,1.9541016-0.4550781
		c0.6191406-0.4638672,0.9287109-1.3183594,0.9287109-2.5644531s-0.3017578-2.0927734-0.9052734-2.5410156
		c-0.4287109-0.3193359-1.0878906-0.4794922-1.9775391-0.4794922h-11.2246094V306.8349609z"/>
	<path d="M365.3789063,315.1894531c-3.3896484,0-5.7617188-0.21875-7.1132813-0.65625
		c-1.3535156-0.4375-2.2128906-1.2685547-2.578125-2.4941406c-0.2548828-0.84375-0.3828125-2.5859375-0.3828125-5.2285156
		c0-2.6884766,0.1201172-4.4316406,0.3583984-5.2275391c0.3662109-1.2412109,1.2333984-2.0849609,2.6025391-2.5302734
		c1.3681641-0.4453125,3.7392578-0.6679688,7.1132813-0.6679688c3.3896484,0,5.7568359,0.21875,7.1015625,0.65625
		s2.2080078,1.2773438,2.5898438,2.5185547c0.2548828,0.84375,0.3828125,2.59375,0.3828125,5.2509766
		c0,2.6738281-0.1201172,4.4091797-0.3583984,5.2041016c-0.3662109,1.2412109-1.2255859,2.0810547-2.578125,2.5185547
		S368.7841797,315.1894531,365.3789063,315.1894531z M365.3789063,312.9941406c3.7558594,0,5.9677734-0.2792969,6.6367188-0.8378906
		c0.6679688-0.5576172,1.0019531-2.34375,1.0019531-5.3574219c0-3.0292969-0.3300781-4.8232422-0.9902344-5.3808594
		c-0.6611328-0.5576172-2.8769531-0.8378906-6.6484375-0.8378906s-5.9882813,0.2802734-6.6484375,0.8378906
		s-0.9902344,2.3515625-0.9902344,5.3808594c0,2.9980469,0.3339844,4.7792969,1.0019531,5.3457031
		C359.4111328,312.7109375,361.6230469,312.9941406,365.3789063,312.9941406z"/>
	<path d="M378.8662109,298.5996094h13.7021484c2.0205078,0,3.3974609,0.3740234,4.1298828,1.1230469
		c1.0820313,1.1162109,1.6230469,3.4667969,1.6230469,7.0527344c0,3.5703125-0.5410156,5.9130859-1.6230469,7.0283203
		c-0.7324219,0.765625-2.109375,1.1474609-4.1298828,1.1474609h-13.7021484V298.5996094z M381.3007813,312.7548828h11.2441406
		c1.3203125,0,2.2080078-0.4023438,2.6611328-1.2080078c0.4541016-0.8046875,0.6806641-2.3955078,0.6806641-4.7714844
		c0-2.3603516-0.2314453-3.9472656-0.6923828-4.7597656c-0.4619141-0.8134766-1.3447266-1.2207031-2.6494141-1.2207031h-11.2441406
		V312.7548828z"/>
	<path d="M405.6259766,310.1962891c0,1.2753906,0.3544922,2.0605469,1.0625,2.3554688s2.5898438,0.4423828,5.6455078,0.4423828
		c3.0869141,0,4.9814453-0.1474609,5.6816406-0.4423828s1.0498047-1.0800781,1.0498047-2.3554688v-11.5966797h2.4355469v11.59375
		c0,2.2480469-0.4462891,3.6259766-1.3369141,4.1357422c-0.9873047,0.5742188-3.5966797,0.8603516-7.8300781,0.8603516
		c-4.2177734,0-6.7958984-0.2705078-7.734375-0.8125c-0.9394531-0.5410156-1.4082031-1.9355469-1.4082031-4.1835938v-11.59375
		h2.4345703V310.1962891z"/>
	<path d="M427.6591797,306.7988281c0,2.9814453,0.3183594,4.7597656,0.9550781,5.3339844s2.5859375,0.8613281,5.8486328,0.8613281
		c3.0390625,0,4.8935547-0.1679688,5.5625-0.5019531c0.7792969-0.3974609,1.1689453-1.4716797,1.1689453-3.2226563h2.4355469
		c0,2.5947266-0.5371094,4.2294922-1.6113281,4.90625c-1.0742188,0.6757813-3.5927734,1.0136719-7.5556641,1.0136719
		c-4.0263672,0-6.5732422-0.4765625-7.6386719-1.4316406c-1.0664063-0.9550781-1.5996094-3.2705078-1.5996094-6.9472656
		c0-3.6914063,0.5292969-6.0185547,1.5878906-6.9824219c1.0576172-0.9619141,3.6074219-1.4433594,7.6503906-1.4433594
		c3.9785156,0,6.5009766,0.3300781,7.5673828,0.9912109c1.0654297,0.6611328,1.5996094,2.2958984,1.5996094,4.9042969h-2.4355469
		c0-1.75-0.3574219-2.8046875-1.0742188-3.1630859c-0.7158203-0.3574219-2.6015625-0.5371094-5.6572266-0.5371094
		c-3.2783203,0-5.2324219,0.2832031-5.8603516,0.8496094C427.9736328,301.9960938,427.6591797,303.7861328,427.6591797,306.7988281z
		"/>
	<path d="M447.7353516,298.5996094h17.0683594v2.1953125h-7.3046875v14.15625h-2.4345703v-14.15625h-7.3291016V298.5996094z"/>
	<path d="M470.7470703,314.9511719h-2.4355469v-16.3515625h2.4355469V314.9511719z"/>
	<path d="M484.8544922,315.1894531c-3.3896484,0-5.7617188-0.21875-7.1132813-0.65625
		c-1.3535156-0.4375-2.2128906-1.2685547-2.578125-2.4941406c-0.2548828-0.84375-0.3828125-2.5859375-0.3828125-5.2285156
		c0-2.6884766,0.1201172-4.4316406,0.3583984-5.2275391c0.3662109-1.2412109,1.2333984-2.0849609,2.6025391-2.5302734
		c1.3681641-0.4453125,3.7392578-0.6679688,7.1132813-0.6679688c3.3896484,0,5.7568359,0.21875,7.1015625,0.65625
		s2.2080078,1.2773438,2.5898438,2.5185547c0.2548828,0.84375,0.3828125,2.59375,0.3828125,5.2509766
		c0,2.6738281-0.1201172,4.4091797-0.3583984,5.2041016c-0.3662109,1.2412109-1.2255859,2.0810547-2.578125,2.5185547
		S488.2597656,315.1894531,484.8544922,315.1894531z M484.8544922,312.9941406c3.7558594,0,5.9677734-0.2792969,6.6367188-0.8378906
		c0.6679688-0.5576172,1.0019531-2.34375,1.0019531-5.3574219c0-3.0292969-0.3300781-4.8232422-0.9902344-5.3808594
		c-0.6611328-0.5576172-2.8769531-0.8378906-6.6484375-0.8378906s-5.9882813,0.2802734-6.6484375,0.8378906
		s-0.9902344,2.3515625-0.9902344,5.3808594c0,2.9980469,0.3339844,4.7792969,1.0019531,5.3457031
		C478.8867188,312.7109375,481.0986328,312.9941406,484.8544922,312.9941406z"/>
	<path d="M498.4375,298.5996094h3.5566406l14.0126953,14.3222656v-14.3222656h2.4345703v16.3515625h-3.6757813
		l-13.8935547-14.203125v14.203125H498.4375V298.5996094z"/>
</g>
</svg>
