<?xml version="1.0" encoding="utf-8"?>
<!-- Generator: Adobe Illustrator 23.0.2, SVG Export Plug-In . SVG Version: 6.00 Build 0)  -->
<svg version="1.1" id="Слой_1" xmlns="http://www.w3.org/2000/svg" xmlns:xlink="http://www.w3.org/1999/xlink" x="0px" y="0px"
	 viewBox="0 0 467.4117737 257.7058716" style="enable-background:new 0 0 467.4117737 257.7058716;" xml:space="preserve">
<style type="text/css">
	.st0{fill:#FFFFFF;}
</style>
<g>
	<path class="st0" d="M387.1841125,14.3077393"/>
	<path class="st0" d="M293.3432312,14.2401733c0,0-42.9296722,145.1116333-43.4026642,145.739563
		c-0.4697266-0.6374512-21.9078064-69.3308105-29.5616455-94.3939514
		c-5.2252197-17.1104431-10.4203796-34.230072-15.6289673-51.3456116c-15.4444275,0-30.888855,0-46.3332825,0
		c-4.9621277,15.0586548-48.2369614,145.1097412-48.8133621,145.7435913
		c-0.3487701-0.5168457-36.1728363-132.4048462-39.7799377-145.7435913c-19.9419785,0-39.8839645,0.0045166-59.8259277-0.0119019
		c0,0,66.4490509,226.1686401,66.9541168,227.6050415h58.5530472c1.037735-2.5797729,20.2059021-59.7484131,28.7660217-85.7484131
		c4.7970734-14.5703125,15.2923584-44.8094482,15.7205048-45.3660583
		c0.504837,0.6113281,38.111084,118.5100403,42.0701599,131.1144714h59.0621796
		c1.8316345-5.2779236,41.375824-128.1278992,47.9016418-148.6567993
		c3.3659363-10.5887146,10.894928-34.7584267,11.1047668-34.7598457c8.6414185-0.0585632,19.4417419,0.1267281,27.9715881,1.2528877
		c18.5133972,2.4441833,29.3644714,20.0470886,23.1711731,37.0904846
		c-3.7569275,10.3387756-9.2617493,16.1188049-21.1322632,18.0136337
		c-11.6489258,1.8594513-32.510498,1.0179901-40.0345154,0.9674988c-0.1293945,0.4117661-9.7825928,28.882515-13.8926392,42.2588272
		c0.5,1.03125,19.632843,31.720459,28.6859436,45.6654053c7.66745,11.8105164,23.8630371,37.2622986,24.3084412,38.1679077
		h72.3002625c-0.2267761-0.739624-62.2651672-81.916748-61.3879395-82.0370789
		c16.8728027-2.314209,29.8144226-8.764267,39.8016357-15.1295624c14.6642456-9.3461609,18.2623901-13.289032,26.9999695-33.0000076
		c6.125-21,4.6937866-27.9967041,1.666687-47c-3-18.8333321-26.75-50.4383926-59.375-50.4383926"/>
</g>
</svg>
